<svg width="35" height="36" viewBox="0 0 35 36" fill="none" xmlns="http://www.w3.org/2000/svg">
<path d="M10.2085 6.33337V29.6667H16.0418V25.2917H18.9585V29.6667H24.7918V6.33337H10.2085ZM14.5835 23.8334H11.6668V20.9167H14.5835V23.8334ZM14.5835 19.4584H11.6668V16.5417H14.5835V19.4584ZM14.5835 15.0834H11.6668V12.1667H14.5835V15.0834ZM14.5835 10.7084H11.6668V7.79171H14.5835V10.7084ZM18.9585 23.8334H16.0418V20.9167H18.9585V23.8334ZM18.9585 19.4584H16.0418V16.5417H18.9585V19.4584ZM18.9585 15.0834H16.0418V12.1667H18.9585V15.0834ZM18.9585 10.7084H16.0418V7.79171H18.9585V10.7084ZM23.3335 23.8334H20.4168V20.9167H23.3335V23.8334ZM23.3335 19.4584H20.4168V16.5417H23.3335V19.4584ZM23.3335 15.0834H20.4168V12.1667H23.3335V15.0834ZM23.3335 10.7084H20.4168V7.79171H23.3335V10.7084Z" fill="#E0FCFF"/>
</svg>
