<svg width="30" height="30" viewBox="0 0 30 30" fill="none" xmlns="http://www.w3.org/2000/svg">
<path d="M15 0C6.71625 0 0 6.71625 0 15C0 23.2838 6.71625 30 15 30C23.2838 30 30 23.2838 30 15C30 6.71625 23.2838 0 15 0ZM27.75 17.8125C27.75 18.75 26.4375 19.05 24 19.6875C24.2325 18.5831 24.3862 17.2931 24.4294 15.975L28.1812 15.9375C28.1812 16.6125 28.0312 16.875 27.8813 17.8125H27.75ZM2.25 17.8125C2.0625 16.875 1.96875 16.6125 1.875 15.9375H5.625C5.67 17.2931 5.82375 18.5831 6.0825 19.8356C3.5625 19.05 2.25 18.75 2.25 17.8125ZM2.25 12.1875C2.25 11.25 3.5625 10.95 6 10.3125C5.78438 11.4263 5.64937 12.72 5.625 14.0419L1.875 14.0625C1.875 13.3875 2.025 13.125 2.175 12.1875H2.25ZM15.9375 9.375C18.0562 9.39937 20.1112 9.57562 22.1213 9.89437C22.2094 11.1 22.4306 12.5381 22.4981 14.0175L15.9375 14.0644V9.37687V9.375ZM15.9375 7.5V1.9875C18.1313 2.49375 20.0625 4.74375 21.2625 7.89375C19.695 7.67625 17.8519 7.53375 15.9806 7.5H15.9375ZM14.0625 1.9875V7.5C12.1556 7.52812 10.3106 7.66313 8.4975 7.90125C9.9375 4.74375 11.8687 2.49375 14.0625 1.9875ZM14.0625 9.375V14.0625H7.5C7.55813 12.5513 7.76625 11.1169 8.11125 9.73687C9.85875 9.58687 11.9269 9.405 14.0325 9.375H14.0625ZM7.5 15.9375H14.0625V20.625C11.9438 20.6006 9.88875 20.4244 7.87875 20.1056C7.79063 18.9 7.56938 17.4619 7.50187 15.9825L7.5 15.9375ZM14.0625 22.5V28.0125C11.8687 27.5062 9.9375 25.2563 8.7375 22.1063C10.305 22.3238 12.1481 22.4662 14.0194 22.5H14.0625ZM15.9375 28.0125V22.5C17.8444 22.4719 19.6894 22.3369 21.5025 22.0988C20.0625 25.2563 18.1313 27.5062 15.9375 28.0125ZM15.9375 20.625V15.9375H22.5C22.4419 17.4487 22.2337 18.8831 21.8888 20.2631C20.1413 20.4131 18.0731 20.595 15.9675 20.625H15.9375ZM28.125 14.0625H24.375C24.33 12.7069 24.1763 11.4169 23.9175 10.1644C26.4562 10.9125 27.6938 11.2125 27.6938 12.1875C27.9375 13.125 28.0312 13.3875 28.125 14.0625ZM26.8125 9.20625C25.8638 8.82375 24.7388 8.49375 23.5763 8.26875C22.8994 6.35812 22.0594 4.71 20.9719 3.25875C23.5125 4.62 25.4963 6.65437 26.7225 9.12937L26.8125 9.20625ZM9.075 3.3C8.01 4.71 7.16438 6.35812 6.62813 8.13937C5.3175 8.49375 4.1925 8.82375 3.11438 9.25125C4.5225 6.645 6.5325 4.61063 9 3.33375L9.075 3.3ZM3.24375 20.7938C4.1925 21.1763 5.3175 21.5063 6.48 21.7313C7.15688 23.6419 7.99687 25.29 9.08437 26.7413C6.52125 25.3875 4.51688 23.3531 3.2775 20.8706L3.24375 20.7938ZM20.9438 26.7C22.0013 25.2881 22.8413 23.6419 23.3719 21.8606C24.6825 21.5063 25.8075 21.1763 26.8856 20.7488C25.4775 23.355 23.4675 25.3894 21 26.6663L20.9438 26.7Z" fill="white"/>
</svg>
