<svg width="32" height="33" viewBox="0 0 32 33" fill="none" xmlns="http://www.w3.org/2000/svg">
<g clip-path="url(#clip0_19_30)">
<path d="M24.2326 18.3838C23.2244 20.5122 21.8585 22.6325 20.4617 24.5363C19.1353 26.33 17.7186 28.0492 16.2176 29.6868C14.7165 28.0492 13.2998 26.33 11.9734 24.5363C10.5766 22.6325 9.21066 20.5122 8.20253 18.3838C7.18286 16.2335 6.59799 14.2194 6.59799 12.4918C6.59799 9.83428 7.61147 7.28556 9.41549 5.40637C11.2195 3.52718 13.6663 2.47147 16.2176 2.47147C18.7688 2.47147 21.2156 3.52718 23.0196 5.40637C24.8236 7.28556 25.8371 9.83428 25.8371 12.4918C25.8371 14.2194 25.2503 16.2335 24.2326 18.3838ZM16.2176 32.5326C16.2176 32.5326 27.761 21.1374 27.761 12.4918C27.761 9.30276 26.5448 6.2443 24.38 3.98927C22.2152 1.73425 19.2791 0.467392 16.2176 0.467392C13.156 0.467392 10.2199 1.73425 8.05508 3.98927C5.89026 6.2443 4.67407 9.30276 4.67407 12.4918C4.67407 21.1374 16.2176 32.5326 16.2176 32.5326Z" fill="#CAC4D0"/>
<path d="M16.2175 16.5C15.197 16.5 14.2183 16.0777 13.4967 15.326C12.7751 14.5744 12.3697 13.5549 12.3697 12.4919C12.3697 11.4288 12.7751 10.4093 13.4967 9.65766C14.2183 8.90598 15.197 8.4837 16.2175 8.4837C17.238 8.4837 18.2168 8.90598 18.9384 9.65766C19.66 10.4093 20.0654 11.4288 20.0654 12.4919C20.0654 13.5549 19.66 14.5744 18.9384 15.326C18.2168 16.0777 17.238 16.5 16.2175 16.5ZM16.2175 18.5041C17.7483 18.5041 19.2164 17.8707 20.2988 16.7431C21.3812 15.6156 21.9893 14.0864 21.9893 12.4919C21.9893 10.8973 21.3812 9.36807 20.2988 8.24056C19.2164 7.11305 17.7483 6.47962 16.2175 6.47962C14.6868 6.47962 13.2187 7.11305 12.1363 8.24056C11.0539 9.36807 10.4458 10.8973 10.4458 12.4919C10.4458 14.0864 11.0539 15.6156 12.1363 16.7431C13.2187 17.8707 14.6868 18.5041 16.2175 18.5041Z" fill="#CAC4D0"/>
</g>
<defs>
<clipPath id="clip0_19_30">
<rect width="30.7826" height="32.0652" fill="white" transform="translate(0.826172 0.467392)"/>
</clipPath>
</defs>
</svg>
