<svg width="30" height="30" viewBox="0 0 30 30" fill="none" xmlns="http://www.w3.org/2000/svg">
<path d="M12 19.5493L10.5 18.0493C9.5 17.7993 8 17.9243 7.125 19.2993C6.125 20.6743 6.75 22.7993 5 25.0493C5 25.0493 9.375 25.0493 11 23.4243C12.5 21.9243 12.5 20.6743 12.25 19.6743L12 19.5493V19.5493Z" fill="#E0FCFF"/>
<path d="M12.25 15.1742C12 15.5492 11.625 16.0492 11.375 16.4242C11.375 16.6742 11.25 16.7992 11.125 16.9242L13 18.7992C13.125 18.6742 13.375 18.5492 13.5 18.4242C13.875 18.1742 14.375 17.9242 14.75 17.5492C15.25 17.5492 15.5 17.2992 15.75 17.0492L13 14.2992C12.75 14.5492 12.5 14.7992 12.25 15.1742Z" fill="#E0FCFF"/>
<path d="M24.75 5.29923C24.375 4.92423 23.875 4.92423 23.5 5.17423C23.5 5.17423 19.75 8.29923 16.125 11.5492C15.625 12.0492 15.25 12.4242 14.75 12.7992C14.5 13.0492 14.25 13.2992 14 13.4242L16.625 16.0492C16.875 15.7992 17.125 15.5492 17.25 15.1742C17.625 14.6742 18 14.2992 18.375 13.7992C21.5 10.0492 24.75 6.42423 24.75 6.42423C25.125 6.17423 25.125 5.67423 24.75 5.29923V5.29923Z" fill="#E0FCFF"/>
</svg>
