<svg width="48" height="49" viewBox="0 0 48 49" fill="none" xmlns="http://www.w3.org/2000/svg">
<g clip-path="url(#clip0_3_20)">
<path fill-rule="evenodd" clip-rule="evenodd" d="M26.76 25.77L32.49 31.5L31 32.99L25.27 27.26C24.2 28.03 22.91 28.5 21.5 28.5C17.91 28.5 15 25.59 15 22C15 18.41 17.91 15.5 21.5 15.5C25.09 15.5 28 18.41 28 22C28 23.41 27.53 24.7 26.76 25.77ZM21.5 17.5C19.01 17.5 17 19.51 17 22C17 24.49 19.01 26.5 21.5 26.5C23.99 26.5 26 24.49 26 22C26 19.51 23.99 17.5 21.5 17.5Z" fill="#CAC4D0"/>
</g>
<defs>
<clipPath id="clip0_3_20">
<rect x="4" y="4.5" width="40" height="40" rx="20" fill="white"/>
</clipPath>
</defs>
</svg>
