<svg width="34" height="32" viewBox="0 0 34 32" fill="#d9e2ec" xmlns="http://www.w3.org/2000/svg">
<path d="M27.7667 28L18.8417 19.6C18.1333 20.1333 17.3187 20.5556 16.3979 20.8667C15.4771 21.1778 14.4972 21.3333 13.4583 21.3333C10.8847 21.3333 8.7066 20.4944 6.92396 18.8167C5.14132 17.1389 4.25 15.0889 4.25 12.6667C4.25 10.2444 5.14132 8.19444 6.92396 6.51667C8.7066 4.83889 10.8847 4 13.4583 4C16.0319 4 18.2101 4.83889 19.9927 6.51667C21.7753 8.19444 22.6667 10.2444 22.6667 12.6667C22.6667 13.6444 22.5014 14.5667 22.1708 15.4333C21.8403 16.3 21.3917 17.0667 20.825 17.7333L29.75 26.1333L27.7667 28ZM13.4583 18.6667C15.2292 18.6667 16.7344 18.0833 17.974 16.9167C19.2135 15.75 19.8333 14.3333 19.8333 12.6667C19.8333 11 19.2135 9.58333 17.974 8.41667C16.7344 7.25 15.2292 6.66667 13.4583 6.66667C11.6875 6.66667 10.1823 7.25 8.94271 8.41667C7.70312 9.58333 7.08333 11 7.08333 12.6667C7.08333 14.3333 7.70312 15.75 8.94271 16.9167C10.1823 18.0833 11.6875 18.6667 13.4583 18.6667Z" fill="#1D1B20"/>
</svg>
