<svg width="79" height="80" viewBox="0 0 79 80" fill="none" xmlns="http://www.w3.org/2000/svg">
<rect y="0.5" width="79" height="79" rx="39.5" fill="#EADDFF"/>
<path fill-rule="evenodd" clip-rule="evenodd" d="M51.3505 32.1C51.3505 38.6446 46.0451 43.95 39.5005 43.95C32.9559 43.95 27.6505 38.6446 27.6505 32.1C27.6505 25.5554 32.9559 20.25 39.5005 20.25C46.0451 20.25 51.3505 25.5554 51.3505 32.1ZM47.4005 32.1C47.4005 36.463 43.8635 40 39.5005 40C35.1374 40 31.6005 36.463 31.6005 32.1C31.6005 27.737 35.1374 24.2 39.5005 24.2C43.8635 24.2 47.4005 27.737 47.4005 32.1Z" fill="#4F378A"/>
<path d="M39.5005 49.875C26.7136 49.875 15.8188 57.4361 11.6687 68.0293C12.6797 69.0332 13.7447 69.9828 14.859 70.8733C17.9493 61.1477 27.644 53.825 39.5005 53.825C51.357 53.825 61.0517 61.1477 64.142 70.8733C65.2563 69.9828 66.3213 69.0332 67.3323 68.0293C63.1822 57.4361 52.2874 49.875 39.5005 49.875Z" fill="#4F378A"/>
</svg>
